<mxfile host="app.diagrams.net" agent="Mozilla/5.0 (Windows NT 10.0; Win64; x64) AppleWebKit/537.36 (KHTML, like Gecko) Chrome/131.0.0.0 Safari/537.36 Edg/131.0.0.0" version="26.0.11">
  <diagram name="Seite-1" id="eZfO74YTUdXSAktTWJJR">
    <mxGraphModel dx="1188" dy="659" grid="0" gridSize="10" guides="1" tooltips="1" connect="1" arrows="1" fold="1" page="1" pageScale="1" pageWidth="1169" pageHeight="827" math="0" shadow="0">
      <root>
        <mxCell id="0" />
        <mxCell id="1" parent="0" />
        <mxCell id="dkiA7TVGlJUXl4R-B8ol-5" value="&lt;b&gt;192.168.&lt;font color=&quot;#f019c2&quot;&gt;7.&lt;/font&gt;&lt;font style=&quot;color: rgb(0, 255, 255);&quot;&gt;1&lt;/font&gt;&lt;/b&gt;&lt;div&gt;&lt;b&gt;&lt;font&gt;Nikolaj&lt;/font&gt;&lt;/b&gt;&lt;/div&gt;" style="shape=mxgraph.cisco.computers_and_peripherals.workstation;sketch=0;html=1;pointerEvents=1;dashed=0;fillColor=#036897;strokeColor=#ffffff;strokeWidth=2;verticalLabelPosition=bottom;verticalAlign=top;align=center;outlineConnect=0;" parent="1" vertex="1">
          <mxGeometry x="568" y="109" width="83" height="62" as="geometry" />
        </mxCell>
        <mxCell id="dkiA7TVGlJUXl4R-B8ol-6" value="&lt;b&gt;192.168.&lt;font color=&quot;#f019c2&quot;&gt;7&lt;/font&gt;.&lt;font style=&quot;color: rgb(0, 255, 0);&quot;&gt;130&lt;/font&gt;&lt;/b&gt;&lt;div&gt;&lt;b&gt;&lt;font style=&quot;color: rgb(0, 0, 0);&quot;&gt;Benni&lt;/font&gt;&lt;/b&gt;&lt;/div&gt;" style="shape=mxgraph.cisco.computers_and_peripherals.workstation;sketch=0;html=1;pointerEvents=1;dashed=0;fillColor=#036897;strokeColor=#ffffff;strokeWidth=2;verticalLabelPosition=bottom;verticalAlign=top;align=center;outlineConnect=0;" parent="1" vertex="1">
          <mxGeometry x="712" y="436" width="83" height="62" as="geometry" />
        </mxCell>
        <mxCell id="dkiA7TVGlJUXl4R-B8ol-7" value="&lt;b&gt;EV EG&lt;/b&gt;&lt;div&gt;&lt;b&gt;Gimli&lt;/b&gt;&lt;/div&gt;" style="shape=mxgraph.cisco.switches.workgroup_switch;sketch=0;html=1;pointerEvents=1;dashed=0;fillColor=#036897;strokeColor=#ffffff;strokeWidth=2;verticalLabelPosition=bottom;verticalAlign=top;align=center;outlineConnect=0;" parent="1" vertex="1">
          <mxGeometry x="248" y="369" width="101" height="50" as="geometry" />
        </mxCell>
        <mxCell id="dkiA7TVGlJUXl4R-B8ol-8" value="&lt;b&gt;EV OG&lt;/b&gt;&lt;div&gt;&lt;b&gt;Sam&lt;/b&gt;&lt;/div&gt;" style="shape=mxgraph.cisco.switches.workgroup_switch;sketch=0;html=1;pointerEvents=1;dashed=0;fillColor=#036897;strokeColor=#ffffff;strokeWidth=2;verticalLabelPosition=bottom;verticalAlign=top;align=center;outlineConnect=0;" parent="1" vertex="1">
          <mxGeometry x="248" y="171" width="101" height="50" as="geometry" />
        </mxCell>
        <mxCell id="dkiA7TVGlJUXl4R-B8ol-9" value="&lt;b&gt;192.168.&lt;font color=&quot;#f019c2&quot;&gt;7&lt;/font&gt;.&lt;font color=&quot;#5ee1f3&quot;&gt;2&lt;/font&gt;&lt;/b&gt;&lt;div&gt;&lt;b&gt;&lt;font style=&quot;color: rgb(0, 0, 0);&quot;&gt;-&lt;/font&gt;&lt;/b&gt;&lt;/div&gt;" style="shape=mxgraph.cisco.computers_and_peripherals.workstation;sketch=0;html=1;pointerEvents=1;dashed=0;fillColor=#036897;strokeColor=#ffffff;strokeWidth=2;verticalLabelPosition=bottom;verticalAlign=top;align=center;outlineConnect=0;" parent="1" vertex="1">
          <mxGeometry x="560" y="344" width="83" height="62" as="geometry" />
        </mxCell>
        <mxCell id="dkiA7TVGlJUXl4R-B8ol-10" value="&lt;b&gt;192.168.&lt;font color=&quot;#f019c2&quot;&gt;7&lt;/font&gt;.&lt;font color=&quot;#6aff1a&quot;&gt;129&lt;/font&gt;&lt;/b&gt;&lt;div&gt;&lt;b&gt;&lt;font style=&quot;color: rgb(0, 0, 0);&quot;&gt;Matei&lt;/font&gt;&lt;/b&gt;&lt;/div&gt;" style="shape=mxgraph.cisco.computers_and_peripherals.workstation;sketch=0;html=1;pointerEvents=1;dashed=0;fillColor=#036897;strokeColor=#ffffff;strokeWidth=2;verticalLabelPosition=bottom;verticalAlign=top;align=center;outlineConnect=0;" parent="1" vertex="1">
          <mxGeometry x="712" y="186" width="83" height="62" as="geometry" />
        </mxCell>
        <mxCell id="dkiA7TVGlJUXl4R-B8ol-13" value="" style="endArrow=none;html=1;rounded=0;entryX=0.11;entryY=0.5;entryDx=0;entryDy=0;entryPerimeter=0;strokeColor=#5ee1f5;" parent="1" source="dkiA7TVGlJUXl4R-B8ol-8" target="dkiA7TVGlJUXl4R-B8ol-5" edge="1">
          <mxGeometry width="50" height="50" relative="1" as="geometry">
            <mxPoint x="418" y="168" as="sourcePoint" />
            <mxPoint x="468" y="118" as="targetPoint" />
          </mxGeometry>
        </mxCell>
        <mxCell id="dkiA7TVGlJUXl4R-B8ol-14" value="" style="endArrow=none;html=1;rounded=0;entryX=0.11;entryY=0.5;entryDx=0;entryDy=0;entryPerimeter=0;strokeColor=#6aff14;" parent="1" source="dkiA7TVGlJUXl4R-B8ol-8" target="dkiA7TVGlJUXl4R-B8ol-10" edge="1">
          <mxGeometry width="50" height="50" relative="1" as="geometry">
            <mxPoint x="359" y="203" as="sourcePoint" />
            <mxPoint x="586" y="190" as="targetPoint" />
          </mxGeometry>
        </mxCell>
        <mxCell id="dkiA7TVGlJUXl4R-B8ol-15" value="" style="endArrow=none;html=1;rounded=0;exitX=0.98;exitY=0.5;exitDx=0;exitDy=0;exitPerimeter=0;strokeColor=#5ee1f5;" parent="1" source="dkiA7TVGlJUXl4R-B8ol-7" target="dkiA7TVGlJUXl4R-B8ol-9" edge="1">
          <mxGeometry width="50" height="50" relative="1" as="geometry">
            <mxPoint x="369" y="252" as="sourcePoint" />
            <mxPoint x="596" y="239" as="targetPoint" />
          </mxGeometry>
        </mxCell>
        <mxCell id="dkiA7TVGlJUXl4R-B8ol-16" value="" style="endArrow=none;html=1;rounded=0;strokeColor=#6aff14;" parent="1" source="dkiA7TVGlJUXl4R-B8ol-7" target="dkiA7TVGlJUXl4R-B8ol-6" edge="1">
          <mxGeometry width="50" height="50" relative="1" as="geometry">
            <mxPoint x="379" y="262" as="sourcePoint" />
            <mxPoint x="606" y="249" as="targetPoint" />
          </mxGeometry>
        </mxCell>
        <mxCell id="dkiA7TVGlJUXl4R-B8ol-19" value="&lt;table style=&quot;border: 1px solid rgb(71, 71, 71); border-collapse: collapse;&quot; border=&quot;1&quot;&gt;&lt;tbody&gt;&lt;tr&gt;&lt;td&gt;VLAN Nr&lt;/td&gt;&lt;td&gt;Beschreibung&lt;/td&gt;&lt;td&gt;Subnetz&lt;/td&gt;&lt;td&gt;Ports&lt;/td&gt;&lt;/tr&gt;&lt;tr&gt;&lt;td&gt;10&lt;/td&gt;&lt;td&gt;Kamera&lt;/td&gt;&lt;td&gt;A&lt;/td&gt;&lt;td&gt;1/0/1&lt;/td&gt;&lt;/tr&gt;&lt;tr&gt;&lt;td&gt;20&lt;/td&gt;&lt;td&gt;Ton&lt;/td&gt;&lt;td&gt;E&lt;/td&gt;&lt;td&gt;1/0/2&lt;/td&gt;&lt;/tr&gt;&lt;/tbody&gt;&lt;/table&gt;" style="text;html=1;strokeColor=none;fillColor=none;align=center;verticalAlign=middle;whiteSpace=wrap;rounded=0;" parent="1" vertex="1">
          <mxGeometry x="25" y="136" width="206" height="67" as="geometry" />
        </mxCell>
        <mxCell id="AAtL3wGN9ruCp8hhet_S-1" value="&lt;table style=&quot;border: 1px solid rgb(71, 71, 71); border-collapse: collapse;&quot; border=&quot;1&quot;&gt;&lt;tbody&gt;&lt;tr&gt;&lt;td&gt;VLAN Nr&lt;/td&gt;&lt;td&gt;Beschreibung&lt;/td&gt;&lt;td&gt;Subnetz&lt;/td&gt;&lt;td&gt;Ports&lt;/td&gt;&lt;/tr&gt;&lt;tr&gt;&lt;td&gt;10&lt;/td&gt;&lt;td&gt;Kamera&lt;/td&gt;&lt;td&gt;A&lt;/td&gt;&lt;td&gt;1/0/1&lt;/td&gt;&lt;/tr&gt;&lt;tr&gt;&lt;td&gt;20&lt;/td&gt;&lt;td&gt;Ton&lt;/td&gt;&lt;td&gt;E&lt;/td&gt;&lt;td&gt;1/0/2&lt;/td&gt;&lt;/tr&gt;&lt;/tbody&gt;&lt;/table&gt;" style="text;html=1;strokeColor=none;fillColor=none;align=center;verticalAlign=middle;whiteSpace=wrap;rounded=0;" vertex="1" parent="1">
          <mxGeometry x="20" y="352" width="206" height="67" as="geometry" />
        </mxCell>
        <mxCell id="AAtL3wGN9ruCp8hhet_S-4" value="1/0/1" style="text;html=1;align=center;verticalAlign=middle;resizable=0;points=[];autosize=1;strokeColor=none;fillColor=none;" vertex="1" parent="1">
          <mxGeometry x="350" y="160" width="45" height="26" as="geometry" />
        </mxCell>
        <mxCell id="AAtL3wGN9ruCp8hhet_S-5" value="1/0/1" style="text;html=1;align=center;verticalAlign=middle;resizable=0;points=[];autosize=1;strokeColor=none;fillColor=none;" vertex="1" parent="1">
          <mxGeometry x="350" y="369" width="45" height="26" as="geometry" />
        </mxCell>
        <mxCell id="AAtL3wGN9ruCp8hhet_S-7" value="1/0/2" style="text;html=1;align=center;verticalAlign=middle;resizable=0;points=[];autosize=1;strokeColor=none;fillColor=none;" vertex="1" parent="1">
          <mxGeometry x="346" y="198" width="45" height="26" as="geometry" />
        </mxCell>
        <mxCell id="AAtL3wGN9ruCp8hhet_S-8" value="1/0/2" style="text;html=1;align=center;verticalAlign=middle;resizable=0;points=[];autosize=1;strokeColor=none;fillColor=none;" vertex="1" parent="1">
          <mxGeometry x="350" y="406" width="45" height="26" as="geometry" />
        </mxCell>
        <mxCell id="AAtL3wGN9ruCp8hhet_S-9" value="" style="endArrow=none;html=1;rounded=0;entryX=0.5;entryY=0.98;entryDx=0;entryDy=0;entryPerimeter=0;exitX=0.5;exitY=0;exitDx=0;exitDy=0;exitPerimeter=0;" edge="1" parent="1" source="dkiA7TVGlJUXl4R-B8ol-7" target="dkiA7TVGlJUXl4R-B8ol-8">
          <mxGeometry width="50" height="50" relative="1" as="geometry">
            <mxPoint x="583" y="310" as="sourcePoint" />
            <mxPoint x="633" y="260" as="targetPoint" />
          </mxGeometry>
        </mxCell>
        <mxCell id="AAtL3wGN9ruCp8hhet_S-11" value="1/0/24" style="text;html=1;align=center;verticalAlign=middle;resizable=0;points=[];autosize=1;strokeColor=none;fillColor=none;" vertex="1" parent="1">
          <mxGeometry x="293" y="252" width="51" height="26" as="geometry" />
        </mxCell>
        <mxCell id="AAtL3wGN9ruCp8hhet_S-12" value="1/0/24" style="text;html=1;align=center;verticalAlign=middle;resizable=0;points=[];autosize=1;strokeColor=none;fillColor=none;" vertex="1" parent="1">
          <mxGeometry x="293" y="346" width="51" height="26" as="geometry" />
        </mxCell>
      </root>
    </mxGraphModel>
  </diagram>
</mxfile>
